<?xml version="1.0" standalone="no"?>
<!DOCTYPE svg PUBLIC "-//W3C//DTD SVG 20010904//EN"
 "http://www.w3.org/TR/2001/REC-SVG-20010904/DTD/svg10.dtd">
<svg version="1.0" xmlns="http://www.w3.org/2000/svg"
 width="200.000000pt" height="200.000000pt" viewBox="0 0 200.000000 200.000000"
 preserveAspectRatio="xMidYMid meet">
<metadata>
Created by potrace 1.10, written by Peter Selinger 2001-2011
</metadata>
<g transform="translate(0.000000,200.000000) scale(0.100000,-0.100000)"
fill="#000000" stroke="none">
<path d="M597 1903 c-4 -3 -7 -41 -7 -83 l0 -76 -65 4 c-89 6 -97 -2 -94 -92
l2 -71 -60 3 c-42 3 -64 -1 -74 -10 -12 -12 -13 -127 -9 -749 l5 -734 555 0
555 0 3 77 3 77 72 3 72 3 3 82 3 82 49 -6 c26 -3 60 -3 74 1 l26 6 -2 743 -3
742 -551 3 c-303 1 -554 -1 -557 -5z m1053 -740 l0 -688 -45 0 -45 0 0 626 c0
523 -2 628 -14 638 -10 8 -133 11 -455 9 l-441 -3 0 53 0 52 500 0 500 0 0
-687z m-150 -165 l0 -688 -45 0 -45 0 0 629 c0 524 -2 630 -14 640 -10 8 -136
11 -456 11 l-443 -1 1 45 c0 25 1 47 1 49 1 1 226 2 501 2 l500 0 0 -687z
m-150 -160 l0 -688 -500 0 -500 0 0 688 0 687 500 0 500 0 0 -687z"/>
<path d="M493 1133 c-15 -6 -17 -39 -3 -48 13 -8 717 -8 730 0 16 10 12 42 -6
49 -19 7 -703 7 -721 -1z"/>
<path d="M484 855 c-4 -8 -4 -22 0 -30 5 -13 53 -15 373 -13 351 3 368 4 371
22 2 10 -2 22 -10 27 -7 5 -174 9 -371 9 -309 0 -358 -2 -363 -15z"/>
<path d="M484 585 c-4 -8 -4 -22 0 -30 5 -13 53 -15 373 -13 l368 3 0 25 0 25
-368 3 c-320 2 -368 0 -373 -13z"/>
</g>
</svg>
